<svg xmlns="http://www.w3.org/2000/svg" viewBox="0 0 32 32">
  <rect width="32" height="32" rx="6" fill="#B85C3F"/>
  <g fill="#FFFFFF">
    <path d="M9 5.5c2.6 0 4.7 2.1 4.7 4.7v3.3h-3.3C7.7 13.5 5.6 11.4 5.6 8.8 5.6 7 7.1 5.5 9 5.5Z"/>
    <path d="M23 5.5c-2.6 0-4.7 2.1-4.7 4.7v3.3h3.3c2.6 0 4.7-2.1 4.7-4.7 0-1.8-1.5-3.3-3.3-3.3Z"/>
    <path d="M9 26.5c2.6 0 4.7-2.1 4.7-4.7v-3.3h-3.3c-2.6 0-4.7 2.1-4.7 4.7 0 1.8 1.5 3.3 3.3 3.3Z"/>
    <path d="M23 26.5c-2.6 0-4.7-2.1-4.7-4.7v-3.3h3.3c2.6 0 4.7 2.1 4.7 4.7 0 1.8-1.5 3.3-3.3 3.3Z"/>
  </g>
  <g fill="#B85C3F">
    <circle cx="11.6" cy="10.4" r="0.9"/>
    <circle cx="20.4" cy="10.4" r="0.9"/>
    <circle cx="11.6" cy="21.6" r="0.9"/>
    <circle cx="20.4" cy="21.6" r="0.9"/>
  </g>
</svg>
